<mxfile host="app.diagrams.net" modified="2022-07-31T23:25:06.242Z" agent="5.0 (X11; Linux x86_64) AppleWebKit/537.36 (KHTML, like Gecko) Chrome/103.0.0.0 Safari/537.36" etag="cPh7zlf337AK7HscZ5G0" version="20.2.2" type="github">
  <diagram id="la5fxS4xIX-HMp8q_szy" name="Page-1">
    <mxGraphModel dx="1163" dy="623" grid="1" gridSize="10" guides="1" tooltips="1" connect="1" arrows="1" fold="1" page="1" pageScale="1" pageWidth="850" pageHeight="1100" math="0" shadow="0">
      <root>
        <mxCell id="0" />
        <mxCell id="1" parent="0" />
        <mxCell id="YEjFQ-aGmDwImw2TVPde-3" value="delivery-service" style="whiteSpace=wrap;html=1;" vertex="1" parent="1">
          <mxGeometry x="375" y="130" width="100" height="30" as="geometry" />
        </mxCell>
        <mxCell id="YEjFQ-aGmDwImw2TVPde-4" value="1. Register a delivery" style="text;html=1;align=center;verticalAlign=middle;resizable=0;points=[];autosize=1;strokeColor=none;fillColor=none;" vertex="1" parent="1">
          <mxGeometry x="30" y="50" width="140" height="30" as="geometry" />
        </mxCell>
        <mxCell id="YEjFQ-aGmDwImw2TVPde-6" value="delivery-db" style="whiteSpace=wrap;html=1;" vertex="1" parent="1">
          <mxGeometry x="570" y="130" width="100" height="30" as="geometry" />
        </mxCell>
        <mxCell id="YEjFQ-aGmDwImw2TVPde-7" value="delivery-interface" style="whiteSpace=wrap;html=1;" vertex="1" parent="1">
          <mxGeometry x="160" y="130" width="100" height="30" as="geometry" />
        </mxCell>
        <mxCell id="YEjFQ-aGmDwImw2TVPde-9" value="" style="endArrow=none;dashed=1;html=1;rounded=0;entryX=0.5;entryY=1;entryDx=0;entryDy=0;" edge="1" parent="1" target="YEjFQ-aGmDwImw2TVPde-7">
          <mxGeometry width="50" height="50" relative="1" as="geometry">
            <mxPoint x="210" y="360" as="sourcePoint" />
            <mxPoint x="260" y="290" as="targetPoint" />
          </mxGeometry>
        </mxCell>
        <mxCell id="YEjFQ-aGmDwImw2TVPde-10" value="" style="endArrow=none;dashed=1;html=1;rounded=0;entryX=0.5;entryY=1;entryDx=0;entryDy=0;" edge="1" parent="1">
          <mxGeometry width="50" height="50" relative="1" as="geometry">
            <mxPoint x="425" y="360" as="sourcePoint" />
            <mxPoint x="425" y="150" as="targetPoint" />
          </mxGeometry>
        </mxCell>
        <mxCell id="YEjFQ-aGmDwImw2TVPde-11" value="" style="endArrow=none;dashed=1;html=1;rounded=0;entryX=0.5;entryY=1;entryDx=0;entryDy=0;" edge="1" parent="1">
          <mxGeometry width="50" height="50" relative="1" as="geometry">
            <mxPoint x="619.5" y="360" as="sourcePoint" />
            <mxPoint x="619.5" y="160" as="targetPoint" />
          </mxGeometry>
        </mxCell>
        <mxCell id="YEjFQ-aGmDwImw2TVPde-13" value="1 - registerDelivery" style="text;html=1;align=center;verticalAlign=middle;resizable=0;points=[];autosize=1;strokeColor=none;fillColor=none;" vertex="1" parent="1">
          <mxGeometry x="90" y="200" width="120" height="30" as="geometry" />
        </mxCell>
        <mxCell id="YEjFQ-aGmDwImw2TVPde-22" value="" style="endArrow=classic;html=1;rounded=0;" edge="1" parent="1">
          <mxGeometry width="50" height="50" relative="1" as="geometry">
            <mxPoint x="215" y="240" as="sourcePoint" />
            <mxPoint x="420" y="240" as="targetPoint" />
          </mxGeometry>
        </mxCell>
        <mxCell id="YEjFQ-aGmDwImw2TVPde-23" value="1.1 HTTP - POST- /v1/delivery/register" style="text;html=1;align=center;verticalAlign=middle;resizable=0;points=[];autosize=1;strokeColor=none;fillColor=none;" vertex="1" parent="1">
          <mxGeometry x="200" y="210" width="230" height="30" as="geometry" />
        </mxCell>
        <mxCell id="YEjFQ-aGmDwImw2TVPde-25" value="" style="endArrow=classic;html=1;rounded=0;" edge="1" parent="1">
          <mxGeometry width="50" height="50" relative="1" as="geometry">
            <mxPoint x="430" y="250" as="sourcePoint" />
            <mxPoint x="620" y="250" as="targetPoint" />
          </mxGeometry>
        </mxCell>
        <mxCell id="YEjFQ-aGmDwImw2TVPde-26" value="1.2 - saveDeliveryRegister" style="text;html=1;align=center;verticalAlign=middle;resizable=0;points=[];autosize=1;strokeColor=none;fillColor=none;" vertex="1" parent="1">
          <mxGeometry x="440" y="220" width="160" height="30" as="geometry" />
        </mxCell>
        <mxCell id="YEjFQ-aGmDwImw2TVPde-27" value="" style="endArrow=classic;html=1;rounded=0;" edge="1" parent="1">
          <mxGeometry width="50" height="50" relative="1" as="geometry">
            <mxPoint x="620" y="280" as="sourcePoint" />
            <mxPoint x="430" y="280" as="targetPoint" />
          </mxGeometry>
        </mxCell>
        <mxCell id="YEjFQ-aGmDwImw2TVPde-28" value="" style="endArrow=classic;html=1;rounded=0;" edge="1" parent="1">
          <mxGeometry width="50" height="50" relative="1" as="geometry">
            <mxPoint x="420" y="280" as="sourcePoint" />
            <mxPoint x="210" y="280" as="targetPoint" />
          </mxGeometry>
        </mxCell>
        <mxCell id="YEjFQ-aGmDwImw2TVPde-29" value="2 - return delivery saved" style="text;html=1;align=center;verticalAlign=middle;resizable=0;points=[];autosize=1;strokeColor=none;fillColor=none;" vertex="1" parent="1">
          <mxGeometry x="445" y="250" width="150" height="30" as="geometry" />
        </mxCell>
        <mxCell id="YEjFQ-aGmDwImw2TVPde-30" value="2.1 - return delivery saved" style="text;html=1;align=center;verticalAlign=middle;resizable=0;points=[];autosize=1;strokeColor=none;fillColor=none;" vertex="1" parent="1">
          <mxGeometry x="225" y="250" width="160" height="30" as="geometry" />
        </mxCell>
        <mxCell id="YEjFQ-aGmDwImw2TVPde-32" value="&lt;span style=&quot;color: rgb(0, 0, 0); font-family: Helvetica; font-size: 12px; font-style: normal; font-variant-ligatures: normal; font-variant-caps: normal; font-weight: 400; letter-spacing: normal; orphans: 2; text-align: center; text-indent: 0px; text-transform: none; widows: 2; word-spacing: 0px; -webkit-text-stroke-width: 0px; background-color: rgb(248, 249, 250); text-decoration-thickness: initial; text-decoration-style: initial; text-decoration-color: initial; float: none; display: inline !important;&quot;&gt;2.2 - return delivery saved&lt;/span&gt;" style="text;whiteSpace=wrap;html=1;" vertex="1" parent="1">
          <mxGeometry x="100" y="240" width="130" height="40" as="geometry" />
        </mxCell>
        <mxCell id="YEjFQ-aGmDwImw2TVPde-34" style="edgeStyle=orthogonalEdgeStyle;rounded=0;orthogonalLoop=1;jettySize=auto;html=1;" edge="1" parent="1" source="YEjFQ-aGmDwImw2TVPde-33">
          <mxGeometry relative="1" as="geometry">
            <mxPoint x="190" y="240" as="targetPoint" />
          </mxGeometry>
        </mxCell>
        <mxCell id="YEjFQ-aGmDwImw2TVPde-33" value="Actor" style="shape=umlActor;verticalLabelPosition=bottom;verticalAlign=top;html=1;outlineConnect=0;" vertex="1" parent="1">
          <mxGeometry x="40" y="210" width="30" height="60" as="geometry" />
        </mxCell>
        <mxCell id="YEjFQ-aGmDwImw2TVPde-35" value="" style="endArrow=classic;html=1;rounded=0;exitX=0.75;exitY=1;exitDx=0;exitDy=0;" edge="1" parent="1" source="YEjFQ-aGmDwImw2TVPde-32">
          <mxGeometry width="50" height="50" relative="1" as="geometry">
            <mxPoint x="90" y="350" as="sourcePoint" />
            <mxPoint x="80" y="280" as="targetPoint" />
          </mxGeometry>
        </mxCell>
        <mxCell id="YEjFQ-aGmDwImw2TVPde-36" value="doorman" style="text;html=1;align=center;verticalAlign=middle;resizable=0;points=[];autosize=1;strokeColor=none;fillColor=none;" vertex="1" parent="1">
          <mxGeometry x="20" y="290" width="70" height="30" as="geometry" />
        </mxCell>
        <mxCell id="YEjFQ-aGmDwImw2TVPde-58" value="delivery-service" style="whiteSpace=wrap;html=1;" vertex="1" parent="1">
          <mxGeometry x="375" y="430" width="100" height="30" as="geometry" />
        </mxCell>
        <mxCell id="YEjFQ-aGmDwImw2TVPde-59" value="1. Get deliveries" style="text;html=1;align=center;verticalAlign=middle;resizable=0;points=[];autosize=1;strokeColor=none;fillColor=none;" vertex="1" parent="1">
          <mxGeometry x="30" y="420" width="110" height="30" as="geometry" />
        </mxCell>
        <mxCell id="YEjFQ-aGmDwImw2TVPde-60" value="delivery-db" style="whiteSpace=wrap;html=1;" vertex="1" parent="1">
          <mxGeometry x="570" y="430" width="100" height="30" as="geometry" />
        </mxCell>
        <mxCell id="YEjFQ-aGmDwImw2TVPde-61" value="delivery-interface" style="whiteSpace=wrap;html=1;" vertex="1" parent="1">
          <mxGeometry x="160" y="430" width="100" height="30" as="geometry" />
        </mxCell>
        <mxCell id="YEjFQ-aGmDwImw2TVPde-62" value="" style="endArrow=none;dashed=1;html=1;rounded=0;entryX=0.5;entryY=1;entryDx=0;entryDy=0;" edge="1" parent="1" target="YEjFQ-aGmDwImw2TVPde-61">
          <mxGeometry width="50" height="50" relative="1" as="geometry">
            <mxPoint x="210" y="660" as="sourcePoint" />
            <mxPoint x="260" y="590" as="targetPoint" />
          </mxGeometry>
        </mxCell>
        <mxCell id="YEjFQ-aGmDwImw2TVPde-63" value="" style="endArrow=none;dashed=1;html=1;rounded=0;entryX=0.5;entryY=1;entryDx=0;entryDy=0;" edge="1" parent="1">
          <mxGeometry width="50" height="50" relative="1" as="geometry">
            <mxPoint x="425" y="660" as="sourcePoint" />
            <mxPoint x="425" y="450" as="targetPoint" />
          </mxGeometry>
        </mxCell>
        <mxCell id="YEjFQ-aGmDwImw2TVPde-64" value="" style="endArrow=none;dashed=1;html=1;rounded=0;entryX=0.5;entryY=1;entryDx=0;entryDy=0;" edge="1" parent="1">
          <mxGeometry width="50" height="50" relative="1" as="geometry">
            <mxPoint x="619.5" y="660" as="sourcePoint" />
            <mxPoint x="619.5" y="460" as="targetPoint" />
          </mxGeometry>
        </mxCell>
        <mxCell id="YEjFQ-aGmDwImw2TVPde-65" value="1 - getDelivery" style="text;html=1;align=center;verticalAlign=middle;resizable=0;points=[];autosize=1;strokeColor=none;fillColor=none;" vertex="1" parent="1">
          <mxGeometry x="100" y="500" width="100" height="30" as="geometry" />
        </mxCell>
        <mxCell id="YEjFQ-aGmDwImw2TVPde-66" value="" style="endArrow=classic;html=1;rounded=0;" edge="1" parent="1">
          <mxGeometry width="50" height="50" relative="1" as="geometry">
            <mxPoint x="215" y="540" as="sourcePoint" />
            <mxPoint x="420" y="540" as="targetPoint" />
          </mxGeometry>
        </mxCell>
        <mxCell id="YEjFQ-aGmDwImw2TVPde-67" value="1.1 HTTP - GET - /v1/delivery/register/:id" style="text;html=1;align=center;verticalAlign=middle;resizable=0;points=[];autosize=1;strokeColor=none;fillColor=none;" vertex="1" parent="1">
          <mxGeometry x="195" y="510" width="240" height="30" as="geometry" />
        </mxCell>
        <mxCell id="YEjFQ-aGmDwImw2TVPde-68" value="" style="endArrow=classic;html=1;rounded=0;" edge="1" parent="1">
          <mxGeometry width="50" height="50" relative="1" as="geometry">
            <mxPoint x="430" y="550" as="sourcePoint" />
            <mxPoint x="620" y="550" as="targetPoint" />
          </mxGeometry>
        </mxCell>
        <mxCell id="YEjFQ-aGmDwImw2TVPde-69" value="1.2 - getDeliveryRegister" style="text;html=1;align=center;verticalAlign=middle;resizable=0;points=[];autosize=1;strokeColor=none;fillColor=none;" vertex="1" parent="1">
          <mxGeometry x="440" y="520" width="160" height="30" as="geometry" />
        </mxCell>
        <mxCell id="YEjFQ-aGmDwImw2TVPde-70" value="" style="endArrow=classic;html=1;rounded=0;" edge="1" parent="1">
          <mxGeometry width="50" height="50" relative="1" as="geometry">
            <mxPoint x="620" y="580" as="sourcePoint" />
            <mxPoint x="430" y="580" as="targetPoint" />
          </mxGeometry>
        </mxCell>
        <mxCell id="YEjFQ-aGmDwImw2TVPde-71" value="" style="endArrow=classic;html=1;rounded=0;" edge="1" parent="1">
          <mxGeometry width="50" height="50" relative="1" as="geometry">
            <mxPoint x="420" y="580" as="sourcePoint" />
            <mxPoint x="210" y="580" as="targetPoint" />
          </mxGeometry>
        </mxCell>
        <mxCell id="YEjFQ-aGmDwImw2TVPde-72" value="2 - return delivery register" style="text;html=1;align=center;verticalAlign=middle;resizable=0;points=[];autosize=1;strokeColor=none;fillColor=none;" vertex="1" parent="1">
          <mxGeometry x="440" y="550" width="160" height="30" as="geometry" />
        </mxCell>
        <mxCell id="YEjFQ-aGmDwImw2TVPde-73" value="2.1 - return delivery register" style="text;html=1;align=center;verticalAlign=middle;resizable=0;points=[];autosize=1;strokeColor=none;fillColor=none;" vertex="1" parent="1">
          <mxGeometry x="220" y="550" width="170" height="30" as="geometry" />
        </mxCell>
        <mxCell id="YEjFQ-aGmDwImw2TVPde-74" value="&lt;span style=&quot;color: rgb(0, 0, 0); font-family: Helvetica; font-size: 12px; font-style: normal; font-variant-ligatures: normal; font-variant-caps: normal; font-weight: 400; letter-spacing: normal; orphans: 2; text-align: center; text-indent: 0px; text-transform: none; widows: 2; word-spacing: 0px; -webkit-text-stroke-width: 0px; background-color: rgb(248, 249, 250); text-decoration-thickness: initial; text-decoration-style: initial; text-decoration-color: initial; float: none; display: inline !important;&quot;&gt;2.2 - return delivery register&lt;/span&gt;" style="text;whiteSpace=wrap;html=1;" vertex="1" parent="1">
          <mxGeometry x="100" y="540" width="130" height="40" as="geometry" />
        </mxCell>
        <mxCell id="YEjFQ-aGmDwImw2TVPde-75" style="edgeStyle=orthogonalEdgeStyle;rounded=0;orthogonalLoop=1;jettySize=auto;html=1;" edge="1" parent="1" source="YEjFQ-aGmDwImw2TVPde-76">
          <mxGeometry relative="1" as="geometry">
            <mxPoint x="190" y="540" as="targetPoint" />
          </mxGeometry>
        </mxCell>
        <mxCell id="YEjFQ-aGmDwImw2TVPde-76" value="Actor" style="shape=umlActor;verticalLabelPosition=bottom;verticalAlign=top;html=1;outlineConnect=0;" vertex="1" parent="1">
          <mxGeometry x="40" y="510" width="30" height="60" as="geometry" />
        </mxCell>
        <mxCell id="YEjFQ-aGmDwImw2TVPde-77" value="" style="endArrow=classic;html=1;rounded=0;exitX=0.75;exitY=1;exitDx=0;exitDy=0;" edge="1" parent="1" source="YEjFQ-aGmDwImw2TVPde-74">
          <mxGeometry width="50" height="50" relative="1" as="geometry">
            <mxPoint x="90" y="650" as="sourcePoint" />
            <mxPoint x="80" y="580" as="targetPoint" />
          </mxGeometry>
        </mxCell>
        <mxCell id="YEjFQ-aGmDwImw2TVPde-79" value="dweller" style="text;html=1;align=center;verticalAlign=middle;resizable=0;points=[];autosize=1;strokeColor=none;fillColor=none;" vertex="1" parent="1">
          <mxGeometry x="30" y="585" width="60" height="30" as="geometry" />
        </mxCell>
        <mxCell id="YEjFQ-aGmDwImw2TVPde-80" value="DOMAIN:&lt;br&gt;" style="text;html=1;align=center;verticalAlign=middle;resizable=0;points=[];autosize=1;strokeColor=none;fillColor=none;" vertex="1" parent="1">
          <mxGeometry x="25" y="695" width="70" height="30" as="geometry" />
        </mxCell>
        <mxCell id="YEjFQ-aGmDwImw2TVPde-81" value="&lt;br&gt;" style="text;html=1;align=center;verticalAlign=middle;resizable=0;points=[];autosize=1;strokeColor=none;fillColor=none;" vertex="1" parent="1">
          <mxGeometry x="120" y="725" width="20" height="30" as="geometry" />
        </mxCell>
        <mxCell id="YEjFQ-aGmDwImw2TVPde-82" value="Register&lt;br&gt;id string&lt;br&gt;from string&lt;br&gt;destination string&lt;br&gt;created_at date&lt;br&gt;objects []Object" style="text;html=1;align=center;verticalAlign=middle;resizable=0;points=[];autosize=1;strokeColor=none;fillColor=none;" vertex="1" parent="1">
          <mxGeometry x="70" y="725" width="110" height="100" as="geometry" />
        </mxCell>
        <mxCell id="YEjFQ-aGmDwImw2TVPde-83" value="Object&lt;br&gt;id string&lt;br&gt;name string&lt;br&gt;register_id string" style="text;html=1;align=center;verticalAlign=middle;resizable=0;points=[];autosize=1;strokeColor=none;fillColor=none;" vertex="1" parent="1">
          <mxGeometry x="210" y="725" width="110" height="70" as="geometry" />
        </mxCell>
      </root>
    </mxGraphModel>
  </diagram>
</mxfile>
